<?xml version="1.0" standalone="no"?>
<svg version="1.0" xmlns="http://www.w3.org/2000/svg"
 width="100%" height="100%" viewBox="0 0 300.000000 301.000000"
 preserveAspectRatio="xMidYMid meet">
<g transform="translate(0.000000,301.000000) scale(0.100000,-0.100000)"
fill="#000000" stroke="none">
<path d="M125 2960 c38 -27 71 -47 74 -45 6 6 7 5 -63 54 -33 22 -64 41 -70
41 -6 0 21 -22 59 -50z"/>
<path d="M268 2893 c-47 -65 -98 -137 -113 -160 -15 -24 -32 -43 -37 -43 -5 0
-26 11 -46 25 -44 30 -48 30 -55 8 -2 -10 -8 -25 -11 -33 -5 -11 0 -16 15 -17
15 -1 18 1 10 10 -5 7 -6 18 -2 25 6 10 17 8 47 -10 l39 -23 -54 -11 c-52 -12
-78 -24 -50 -24 8 0 31 4 51 9 41 10 41 5 -1 -49 -19 -24 -20 -24 -40 -6 -16
15 -21 16 -21 5 0 -18 19 -39 35 -39 11 0 62 68 229 303 54 76 96 140 93 143
-3 3 -43 -48 -89 -113z"/>
<path d="M603 2993 c-4 -9 4 -94 16 -187 35 -256 40 -305 41 -377 0 -42 5 -71
13 -77 7 -6 24 -34 37 -62 l24 -51 17 68 c17 66 17 71 -2 178 -11 60 -34 198
-50 305 -17 107 -35 201 -41 208 -15 18 -48 15 -55 -5z m47 -88 c-6 -28 -8
-73 -3 -109 6 -52 8 -57 14 -31 4 17 7 46 7 65 l0 35 -8 -30 c-10 -39 -11 -3
-2 50 6 34 11 17 30 -115 12 -85 22 -159 22 -165 -3 -28 -19 42 -26 106 -7 68
-8 71 -16 41 -5 -20 -5 -59 0 -93 5 -33 6 -62 2 -64 -9 -6 -14 21 -35 185 -9
69 -18 135 -21 148 -3 14 0 22 9 22 9 0 12 -12 10 -37 -2 -36 1 -30 13 26 3
13 7 21 10 19 2 -3 0 -27 -6 -53z"/>
<path d="M870 2963 c6 -59 32 -67 41 -13 6 33 6 33 8 6 1 -38 7 -31 15 19 4
25 3 35 -2 26 -8 -11 -10 -11 -15 0 -3 8 -8 -5 -12 -28 -4 -24 -12 -40 -17
-37 -5 3 -6 21 -2 40 5 26 3 34 -8 34 -11 0 -13 -11 -8 -47z"/>
<path d="M1478 2788 l3 -223 32 -47 c17 -26 33 -46 34 -44 2 1 -1 38 -6 82
-16 137 -24 344 -13 344 10 0 82 -215 118 -352 l18 -68 14 53 c7 28 11 64 8
80 -3 15 -1 27 4 27 6 0 6 9 1 23 -5 12 -14 21 -19 20 -6 -1 -15 10 -20 25 -6
15 -31 80 -56 145 -25 66 -46 128 -46 138 0 15 -7 19 -37 19 l-38 0 3 -222z
m36 -35 c3 -86 9 -175 12 -198 5 -35 4 -38 -7 -20 -7 11 -15 27 -18 35 -9 29
-12 352 -3 346 5 -3 12 -76 16 -163z m106 4 c36 -93 50 -141 49 -175 -1 -55 5
-67 -68 163 -74 232 -69 235 19 12z"/>
<path d="M1776 2966 c9 -25 19 -46 24 -46 8 0 122 49 129 56 6 6 -20 34 -31
34 -6 0 -6 -6 1 -14 8 -10 9 -16 1 -21 -13 -8 -30 3 -30 21 0 8 -5 14 -10 14
-7 0 -7 -7 1 -21 9 -17 8 -23 -2 -30 -22 -14 -26 -11 -40 23 -7 17 -15 26 -17
20 -2 -6 2 -20 8 -32 6 -11 8 -26 4 -32 -5 -7 -12 4 -18 27 -6 21 -17 40 -23
42 -9 3 -8 -9 3 -41z"/>
<path d="M2280 2900 c57 -61 107 -113 112 -116 11 -7 88 54 88 71 0 7 -6 18
-14 24 -13 11 -10 19 15 59 16 25 29 53 29 61 0 9 -12 -4 -26 -29 -14 -25 -32
-52 -40 -61 -12 -14 -12 -18 6 -34 l20 -18 -27 -29 c-29 -31 -43 -34 -61 -16
-9 9 -8 16 6 32 17 21 17 21 -4 3 -19 -16 -23 -16 -34 -2 -8 10 -9 15 -1 15 6
0 11 5 11 11 0 8 -4 8 -14 0 -11 -9 -21 -3 -50 30 -35 38 -36 41 -19 55 10 7
13 14 8 14 -6 0 -16 -5 -22 -11 -7 -7 -18 -1 -36 20 -14 17 -31 31 -37 31 -7
0 34 -50 90 -110z"/>
<path d="M2351 2984 c31 -33 91 -76 70 -50 -13 15 -12 21 3 47 9 16 13 29 8
29 -5 0 -14 -12 -21 -26 l-12 -27 -27 27 c-36 34 -53 34 -21 0z"/>
<path d="M2632 2965 c-16 -22 -32 -45 -35 -52 -7 -12 -2 -16 251 -195 140 -99
152 -106 152 -83 0 14 -5 25 -11 25 -5 0 -7 -5 -3 -12 5 -7 3 -8 -5 -4 -7 5
-10 11 -7 14 7 7 -13 32 -26 32 -5 0 -6 -6 -2 -12 4 -8 3 -10 -2 -5 -5 5 -9
14 -9 20 0 5 -6 12 -14 15 -9 3 -11 0 -6 -9 5 -8 4 -11 -1 -6 -5 5 -9 14 -9
20 0 7 -8 11 -17 11 -10 -1 -16 3 -15 10 1 6 -6 10 -15 10 -10 -1 -16 2 -13 6
7 12 -53 53 -65 45 -6 -4 -9 -1 -8 7 2 7 -5 12 -15 12 -10 -1 -16 1 -13 4 7 7
-13 32 -26 32 -5 0 -6 -5 -2 -12 4 -7 3 -8 -5 -4 -6 4 -9 11 -6 16 3 4 -11 18
-30 30 -19 12 -35 24 -35 27 0 3 15 27 34 53 34 48 34 48 10 46 -16 -1 -34
-15 -52 -41z"/>
<path d="M2910 3006 c0 -7 82 -57 87 -53 2 3 -13 17 -34 31 -35 24 -53 32 -53
22z"/>
<path d="M1166 2971 c-2 -3 -2 -15 -1 -26 1 -11 4 -38 6 -60 4 -41 49 -105 75
-105 7 0 14 -6 17 -12 2 -7 11 1 20 18 9 17 23 36 31 43 20 17 20 31 1 31 -16
0 -38 42 -39 74 -1 15 -13 22 -54 31 -29 7 -54 9 -56 6z m91 -35 c3 -3 3 -16
-1 -30 -4 -18 -11 -24 -24 -20 -15 5 -15 4 -1 -8 9 -7 15 -21 13 -31 -2 -15 0
-16 12 -6 10 8 11 16 5 22 -11 11 -3 39 10 31 5 -3 7 -9 4 -14 -3 -5 3 -15 14
-22 19 -12 19 -12 0 -40 -19 -26 -22 -27 -47 -14 -34 18 -49 47 -57 107 l-5
47 36 -8 c19 -5 38 -11 41 -14z"/>
<path d="M0 2923 c0 -5 32 -30 70 -56 39 -26 70 -44 70 -39 0 5 -32 30 -70 56
-39 25 -70 43 -70 39z"/>
<path d="M915 2850 c-18 -20 -18 -21 16 -56 19 -20 149 -145 289 -278 168
-160 275 -253 314 -275 32 -18 60 -31 62 -29 2 2 -12 26 -30 54 -42 61 -604
604 -626 604 -4 0 -15 -9 -25 -20z m51 -47 c-18 -17 -18 -17 -6 7 12 23 12 24
-4 11 -23 -20 -45 1 -26 24 12 15 15 14 34 -4 20 -20 20 -21 2 -38z m54 -12
c0 -4 -6 -13 -12 -21 -11 -12 -10 -12 5 -1 22 17 34 7 17 -14 -16 -19 -22 -19
-48 3 -19 17 -20 20 -5 34 15 15 43 14 43 -1z m35 -61 c9 -15 27 -12 19 3 -4
6 16 -10 44 -37 28 -27 50 -54 49 -60 -1 -6 4 -10 11 -8 8 1 11 -2 8 -7 -6
-10 138 -146 148 -139 12 7 166 -156 156 -166 -6 -6 -15 -4 -25 4 -8 7 -15 9
-15 5 0 -8 -37 26 -235 214 -98 93 -119 119 -60 72 11 -9 7 -1 -10 17 -16 18
-35 30 -42 28 -7 -3 -12 0 -10 7 1 7 -4 11 -11 9 -8 -1 -11 1 -8 6 3 5 -6 20
-20 35 -14 15 -20 27 -15 27 5 0 13 -4 16 -10z m495 -472 c0 -4 -16 0 -35 9
-33 16 -34 18 -17 33 16 16 18 15 34 -9 10 -14 18 -29 18 -33z"/>
<path d="M1170 2598 c0 -3 64 -65 143 -138 103 -97 119 -110 57 -46 -82 84
-200 193 -200 184z"/>
<path d="M1340 2467 c0 -1 35 -36 78 -77 l77 -75 -75 78 c-69 71 -80 82 -80
74z"/>
<path d="M1961 2817 c-31 -38 -224 -542 -216 -567 7 -21 313 -148 367 -152 31
-3 35 1 60 52 28 55 114 275 168 426 19 53 25 85 19 96 -5 8 -35 26 -66 38
-32 13 -110 45 -174 72 -126 52 -141 55 -158 35z m219 -76 c98 -40 166 -74
168 -83 3 -15 -143 -408 -156 -417 -4 -4 -8 -15 -10 -25 -2 -11 -10 -29 -19
-42 -8 -13 -16 -31 -17 -41 -2 -10 -12 -19 -23 -21 -18 -3 -303 100 -348 125
-12 7 -8 27 26 123 22 63 41 123 42 132 1 9 5 14 9 12 7 -5 9 1 12 39 1 6 7
18 14 26 7 7 11 18 9 25 -2 6 3 17 10 25 8 7 12 20 9 28 -3 8 -2 12 3 9 5 -3
9 6 9 21 0 15 5 29 11 31 6 2 9 8 5 13 -3 5 0 9 6 9 7 0 9 7 6 16 -4 9 -2 13
5 8 7 -4 10 -1 7 7 -6 17 22 49 42 49 8 -1 89 -32 180 -69z"/>
<path d="M1980 2714 c-12 -26 -19 -55 -18 -63 2 -10 56 -37 143 -73 77 -31
143 -57 146 -57 12 -2 52 110 43 119 -7 7 -76 36 -281 117 -8 3 -21 -14 -33
-43z m157 -25 c71 -28 132 -54 136 -58 9 -9 -21 -91 -32 -91 -11 0 -255 101
-264 109 -6 6 22 91 30 91 2 0 60 -23 130 -51z"/>
<path d="M1929 2553 c-8 -22 -7 -30 7 -40 20 -14 44 -17 44 -5 0 4 3 16 6 28
4 15 -1 23 -21 32 -23 11 -26 10 -36 -15z m45 -2 c11 -17 -5 -39 -25 -34 -22
6 -24 14 -7 31 14 14 25 15 32 3z"/>
<path d="M2002 2520 c-9 -24 -7 -29 15 -39 14 -7 27 -10 28 -9 5 7 25 47 25
51 0 3 -13 10 -29 15 -27 10 -30 8 -39 -18z m43 -11 c0 -7 -8 -15 -17 -17 -18
-3 -25 18 -11 32 10 10 28 1 28 -15z"/>
<path d="M2080 2494 c-13 -34 -14 -33 16 -45 31 -11 30 -12 39 22 5 21 2 27
-20 37 -23 11 -26 10 -35 -14z m40 -4 c11 -7 12 -12 3 -21 -16 -16 -44 -4 -37
16 7 17 13 18 34 5z"/>
<path d="M1899 2473 c-7 -20 -6 -28 3 -35 23 -14 45 -8 56 16 9 20 7 25 -14
35 -33 15 -33 15 -45 -16z m45 -1 c8 -13 -11 -35 -23 -28 -16 10 -14 36 3 36
8 0 17 -4 20 -8z"/>
<path d="M2154 2463 c-5 -19 -2 -30 11 -40 11 -7 22 -13 25 -13 7 0 33 51 28
55 -7 6 -47 25 -52 25 -3 0 -9 -12 -12 -27z m42 -4 c10 -17 -13 -36 -27 -22
-12 12 -4 33 11 33 5 0 12 -5 16 -11z"/>
<path d="M1974 2444 c-7 -28 7 -44 37 -44 24 0 33 42 12 58 -26 19 -42 14 -49
-14z m46 -15 c0 -20 -8 -23 -28 -11 -17 11 -4 42 14 35 8 -3 14 -14 14 -24z"/>
<path d="M2048 2416 c-13 -30 -12 -32 24 -41 23 -6 28 -3 34 19 7 31 7 31 -23
40 -18 6 -25 2 -35 -18z m52 -1 c0 -2 -3 -10 -6 -18 -8 -22 -43 -10 -37 13 3
12 11 16 24 13 10 -3 19 -7 19 -8z"/>
<path d="M1870 2404 c-13 -34 -14 -33 17 -45 20 -7 28 -6 35 3 15 24 8 45 -17
56 -23 11 -27 9 -35 -14z m39 -3 c16 -10 6 -31 -15 -31 -8 0 -14 9 -14 20 0
22 7 25 29 11z"/>
<path d="M2122 2385 c-11 -23 -9 -27 14 -35 30 -12 40 -8 47 20 3 13 -1 24
-13 30 -28 15 -36 12 -48 -15z m48 -10 c0 -8 -9 -15 -20 -15 -11 0 -20 7 -20
15 0 8 9 15 20 15 11 0 20 -7 20 -15z"/>
<path d="M1945 2370 c-8 -25 -1 -36 25 -43 16 -4 23 1 31 20 7 20 6 29 -3 35
-23 14 -46 9 -53 -12z m39 4 c17 -7 10 -34 -9 -34 -17 0 -28 17 -20 30 7 12 8
12 29 4z"/>
<path d="M2019 2343 c-5 -14 -8 -27 -7 -28 2 -1 14 -8 27 -15 19 -10 25 -10
32 1 15 23 6 51 -19 60 -19 7 -24 4 -33 -18z m46 -13 c0 -8 -8 -16 -17 -18
-13 -2 -18 3 -18 18 0 15 5 20 18 18 9 -2 17 -10 17 -18z"/>
<path d="M1840 2324 c-8 -21 -8 -29 2 -36 24 -14 49 -8 57 15 10 25 6 32 -26
42 -19 5 -25 1 -33 -21z m50 -7 c0 -19 -10 -27 -26 -20 -21 8 -17 33 6 33 11
0 20 -6 20 -13z"/>
<path d="M2081 2281 c-26 -72 -26 -77 1 -84 29 -8 34 -4 51 46 8 23 18 49 22
58 4 12 -2 19 -23 27 -30 10 -30 10 -51 -47z m53 30 c3 -5 -2 -30 -10 -55 -12
-34 -21 -46 -33 -44 -18 4 -17 21 4 73 15 34 28 44 39 26z"/>
<path d="M1912 2295 c-10 -21 -9 -26 8 -35 30 -16 47 -12 54 13 4 14 0 26 -11
35 -25 18 -39 15 -51 -13z m48 -11 c0 -8 -9 -14 -20 -14 -22 0 -23 1 -14 24 7
18 34 10 34 -10z"/>
<path d="M1991 2268 c-7 -17 -5 -26 7 -35 25 -20 41 -15 48 13 11 43 -39 63
-55 22z m49 -7 c-1 -17 -17 -29 -29 -21 -19 11 -6 41 14 34 8 -3 15 -9 15 -13z"/>
<path d="M1321 2807 c-6 -8 -10 -21 -8 -28 2 -8 2 -11 0 -6 -3 4 -9 5 -14 1
-12 -7 -2 -24 15 -24 8 0 16 14 20 32 7 36 3 44 -13 25z"/>
<path d="M430 2770 c-14 -4 -20 -9 -15 -9 6 -1 -21 -19 -59 -40 -41 -23 -77
-37 -90 -34 -17 4 -18 3 -6 -6 12 -9 12 -11 -2 -16 -10 -4 -21 -4 -26 -1 -6 3
-12 -3 -15 -14 -3 -13 0 -20 8 -20 15 0 129 -207 127 -232 -1 -16 34 -55 43
-47 2 3 0 18 -4 35 -5 16 -10 25 -10 19 -1 -5 -31 46 -67 113 -62 117 -64 124
-47 137 15 12 20 12 31 -2 6 -9 12 -22 12 -29 0 -30 26 -34 95 -14 50 14 72
17 80 9 7 -8 3 -16 -15 -27 -75 -51 -112 -102 -74 -102 12 0 15 -7 12 -25 -3
-14 0 -29 7 -35 9 -8 12 -1 11 25 -1 20 -8 40 -16 46 -16 10 -9 18 71 80 63
49 12 77 -81 44 -59 -21 -64 -20 -82 18 l-16 33 84 44 c46 24 84 47 84 52 0 9
-6 9 -40 -2z"/>
<path d="M2568 2599 c-10 -16 -24 -22 -54 -22 -40 0 -41 -1 -57 -50 -9 -28
-15 -53 -13 -55 11 -10 105 -8 132 3 31 13 85 60 83 73 0 4 -18 22 -39 40
l-38 32 -14 -21z m61 -61 c-19 -35 -63 -57 -115 -55 -52 2 -53 4 -41 54 11 41
36 34 38 -11 l2 -31 6 35 c5 27 11 36 29 38 13 2 26 10 29 18 4 11 11 9 33 -9
20 -16 25 -26 19 -39z"/>
<path d="M2635 2600 c21 -23 45 -26 45 -6 0 15 -21 26 -47 26 -14 0 -14 -3 2
-20z"/>
<path d="M2720 2476 c0 -10 100 -143 197 -265 46 -57 83 -98 83 -93 0 6 -35
55 -78 109 -106 134 -172 221 -172 226 0 3 23 -2 50 -11 28 -9 50 -19 50 -24
0 -4 7 -5 15 -2 11 4 15 -1 16 -17 1 -17 3 -19 6 -6 2 9 9 17 14 17 6 0 8 -4
5 -9 -4 -5 3 -7 15 -4 19 5 20 4 9 -16 -6 -13 -9 -26 -5 -29 3 -3 8 4 12 16 5
22 28 30 35 12 2 -5 9 -6 17 -1 9 6 -29 23 -115 51 -71 24 -135 45 -141 48 -7
2 -13 1 -13 -2z"/>
<path d="M981 2415 c-7 -24 -26 -65 -42 -91 -17 -25 -29 -47 -27 -49 8 -7 115
-65 120 -65 4 0 13 20 22 45 8 25 29 66 46 92 17 25 30 46 28 48 -18 12 -118
65 -125 65 -5 0 -15 -20 -22 -45z m85 -1 l45 -26 -21 -32 c-12 -17 -30 -51
-41 -76 -24 -53 -25 -54 -38 -46 -6 4 4 30 24 65 42 71 43 89 10 97 -31 8 -26
13 -64 -63 -17 -35 -35 -63 -39 -63 -20 0 -18 13 4 37 13 14 24 30 24 36 0 12
42 97 47 97 3 0 24 -12 49 -26z m-17 -33 c11 -7 7 -21 -20 -70 -32 -58 -50
-73 -64 -51 -6 10 51 130 63 130 4 0 13 -4 21 -9z"/>
<path d="M8 2363 c6 -2 10 -8 7 -13 -3 -4 4 -6 16 -3 18 5 20 3 14 -15 -5 -17
-3 -21 9 -16 9 3 13 11 10 16 -7 11 37 0 46 -11 3 -3 11 -6 18 -7 38 -3 43 -5
38 -13 -4 -5 3 -7 15 -4 18 5 19 2 14 -23 -5 -26 -4 -26 4 -6 13 28 28 28 36
1 5 -15 10 -18 18 -10 15 15 40 14 31 -1 -4 -7 -3 -8 5 -4 19 12 71 -3 64 -20
-3 -8 0 -14 7 -14 6 0 8 5 5 10 -3 6 1 10 10 10 10 0 13 -5 9 -12 -4 -7 -3 -8
4 -4 18 11 62 -5 63 -23 0 -9 3 -11 5 -5 3 7 14 9 25 7 15 -4 20 -12 16 -29
-2 -13 0 -21 4 -18 5 3 9 12 9 20 0 15 6 16 31 6 13 -6 2 -48 -71 -272 -50
-152 -90 -258 -94 -250 -3 8 -4 4 -2 -10 2 -14 1 -33 -3 -44 -6 -17 -9 -16
-25 10 -38 59 -339 454 -343 450 -6 -6 354 -486 364 -487 7 0 202 581 203 602
0 7 -549 190 -565 188 -6 0 -4 -3 3 -6z"/>
<path d="M2447 2323 c-3 -4 -8 -29 -12 -55 l-7 -48 29 6 c36 7 103 -19 103
-40 0 -25 18 -19 22 7 3 25 24 27 113 13 64 -10 51 3 -28 30 -54 18 -62 24
-65 48 -3 22 -6 25 -18 15 -18 -15 -92 -4 -115 17 -9 8 -19 12 -22 7z m93 -43
c34 0 41 -3 36 -16 -3 -9 -6 -22 -6 -29 0 -12 -8 -11 -50 1 -28 8 -55 12 -60
9 -11 -7 -14 38 -4 48 4 3 15 2 25 -3 10 -6 36 -10 59 -10z"/>
<path d="M25 2223 c17 -25 219 -286 278 -357 l24 -30 38 114 c21 63 47 123 59
134 12 12 14 15 4 7 -17 -13 -18 -12 -16 8 3 21 -11 27 -175 81 -98 32 -190
61 -204 65 l-26 6 18 -28z m200 -53 c88 -29 164 -56 169 -60 9 -9 -64 -242
-76 -238 -9 4 -278 345 -278 354 0 3 6 4 13 2 6 -3 84 -29 172 -58z"/>
<path d="M1400 2217 c0 -19 -32 -31 -60 -22 -12 4 -20 2 -20 -5 0 -16 -43 -29
-57 -18 -9 7 -13 7 -13 -1 0 -18 -50 -33 -66 -20 -11 9 -14 8 -14 -4 0 -16
-44 -32 -61 -21 -6 3 -16 -1 -22 -9 -17 -21 -57 -32 -57 -16 0 7 -9 3 -20 -9
-22 -23 -50 -29 -50 -11 0 5 -5 7 -11 4 -6 -4 -8 -10 -5 -13 3 -3 -8 -13 -24
-23 -29 -18 -40 -39 -21 -39 5 0 7 -10 3 -22 -4 -16 -2 -19 8 -13 9 6 11 4 5
-4 -9 -16 14 -103 26 -95 5 3 7 -1 4 -8 -6 -16 39 -160 48 -152 3 3 3 -2 1
-13 -3 -10 15 -80 40 -157 25 -76 59 -188 77 -248 l32 -110 31 6 c26 6 416
117 514 147 17 6 32 15 32 19 0 33 -119 438 -217 742 -32 101 -40 117 -56 112
-10 -3 -24 0 -32 6 -12 10 -15 9 -15 -3z m66 -39 c4 -13 2 -24 -5 -26 -6 -2
-11 -8 -11 -14 0 -6 6 -8 14 -5 9 4 22 -23 45 -96 55 -173 161 -527 161 -536
0 -5 -11 -12 -25 -15 -13 -3 -35 -10 -49 -16 l-25 -9 20 -47 c12 -25 17 -50
12 -54 -4 -4 -49 -20 -100 -35 -51 -15 -90 -32 -87 -36 3 -5 -2 -6 -10 -3 -16
6 -214 -51 -230 -67 -15 -14 -26 -11 -26 9 0 14 2 15 10 2 5 -8 10 -10 10 -5
0 13 -87 298 -179 584 -55 172 -68 226 -59 233 9 5 14 1 16 -12 4 -21 26 -27
37 -10 4 6 1 17 -5 25 -8 9 -8 15 -2 15 6 0 17 3 26 6 12 4 16 0 16 -15 0 -13
6 -21 16 -21 12 0 15 7 12 24 -4 18 1 27 19 35 33 15 35 14 28 -9 -5 -16 -2
-20 15 -20 19 0 21 4 16 25 -4 14 -3 25 1 25 5 0 18 3 30 6 16 4 21 2 20 -12
-1 -9 4 -19 10 -21 17 -6 29 27 13 37 -8 5 -2 11 19 18 28 10 31 9 31 -9 0
-12 7 -19 20 -19 23 0 26 10 8 28 -12 12 -12 11 37 27 11 3 15 -1 13 -12 -2
-10 5 -19 16 -21 15 -3 18 0 12 21 -5 21 -2 25 21 30 32 6 55 -1 47 -15 -4 -6
-10 -5 -15 3 -6 10 -9 10 -9 2 0 -18 20 -27 32 -15 8 8 7 16 -2 27 -10 13 -9
15 8 15 13 0 23 -9 28 -22z m204 -705 c-1 -5 -11 -28 -24 -52 -15 -28 -26 -40
-30 -32 -4 6 -2 19 6 28 11 14 11 16 -4 11 -10 -4 -19 -1 -22 9 -8 19 -9 18
29 31 38 13 45 14 45 5z m28 -101 c-4 -2 -6 -7 -3 -12 3 -4 -5 -6 -17 -2 -11
3 -19 1 -16 -4 4 -5 -6 -9 -21 -10 l-27 -1 35 60 36 60 10 -44 c6 -24 8 -46 3
-47z"/>
<path d="M1400 1999 c-14 -6 -95 -31 -180 -55 -181 -52 -184 -53 -178 -59 9
-10 373 98 393 116 12 12 -3 11 -35 -2z"/>
<path d="M1265 1854 c-211 -68 -199 -63 -192 -70 4 -5 332 95 382 116 20 9 20
9 0 9 -11 0 -96 -25 -190 -55z"/>
<path d="M1280 1747 c-101 -33 -179 -62 -173 -64 11 -4 381 113 392 123 14 14
-57 -6 -219 -59z"/>
<path d="M1332 1650 c-107 -32 -196 -61 -199 -64 -13 -13 26 -5 96 19 39 13
122 38 184 56 62 17 116 35 122 40 15 15 -1 11 -203 -51z"/>
<path d="M1368 1547 c-109 -33 -198 -64 -198 -68 0 -4 19 -2 43 5 23 8 112 35
197 61 85 27 157 50 159 52 19 15 -31 2 -201 -50z"/>
<path d="M2264 1977 c-99 -78 -211 -165 -247 -193 l-67 -51 83 -109 c211 -277
461 -601 478 -619 19 -19 19 -19 19 35 0 30 -7 134 -15 230 -8 96 -22 327 -32
513 -11 213 -21 337 -28 337 -5 0 -91 -65 -191 -143z m196 26 c0 -98 21 -472
39 -718 6 -71 12 -161 15 -198 l4 -69 -29 34 c-33 38 -35 46 -14 54 8 4 15 10
15 16 0 5 -6 6 -12 1 -25 -15 -37 -11 -62 22 l-25 33 22 15 c12 9 17 16 10 16
-6 1 -15 -3 -18 -9 -11 -18 -21 -11 -68 50 -42 53 -45 60 -29 70 15 11 15 11
-2 6 -10 -4 -25 -1 -32 5 -12 10 -11 14 3 26 17 14 17 14 -1 9 -26 -9 -50 12
-35 31 9 11 9 12 -4 8 -17 -7 -131 130 -121 146 3 5 0 8 -7 7 -6 -2 -14 3 -16
10 -3 8 1 10 14 5 19 -7 18 -5 -11 17 -18 13 -19 13 -12 0 11 -22 -46 43 -83
95 l-31 44 42 33 c220 175 371 290 384 292 8 1 20 8 27 16 10 12 9 12 -3 5 -9
-6 -7 -2 3 8 11 9 23 17 28 17 5 0 9 -44 9 -97z"/>
<path d="M2247 1805 c-53 -41 -97 -72 -97 -68 0 4 -7 -3 -16 -15 -15 -22 -14
-25 11 -60 61 -86 221 -286 230 -289 6 -2 9 21 7 59 -4 101 -31 441 -35 445
-2 1 -47 -31 -100 -72z m108 -156 c21 -294 28 -278 -67 -152 -44 59 -98 129
-120 155 l-38 46 102 80 c57 44 104 79 105 78 2 -2 10 -94 18 -207z"/>
<path d="M1658 2085 c-4 -16 -3 -32 2 -35 10 -6 17 -146 7 -156 -11 -11 -8
-26 3 -19 13 8 13 -18 -1 -32 -7 -7 -4 -12 10 -16 12 -3 21 -2 21 3 0 4 51 10
113 14 61 4 125 9 141 12 19 4 26 3 22 -5 -5 -8 0 -8 19 1 44 20 12 29 -66 19
-41 -6 -110 -11 -154 -13 -76 -3 -80 -2 -83 20 -3 20 1 22 37 22 45 0 61 18
61 68 0 49 12 92 25 92 7 0 19 -30 29 -67 18 -73 32 -90 56 -68 14 13 18 13
32 -1 16 -16 38 -12 38 7 0 6 -4 8 -10 4 -5 -3 -18 0 -29 7 -15 9 -23 9 -35
-1 -13 -11 -17 -10 -25 10 -4 13 -12 43 -16 66 -3 23 -13 47 -21 54 -22 18
-54 -16 -55 -60 -1 -20 -4 -49 -8 -66 -5 -26 -10 -30 -43 -30 l-37 0 -7 62
c-3 34 -4 65 -1 70 3 4 0 22 -7 38 l-13 30 -5 -30z"/>
<path d="M2695 2021 c-62 -77 -69 -97 -29 -87 18 5 24 3 18 -5 -11 -18 13 -2
74 49 28 24 52 50 52 56 0 13 -41 56 -53 56 -3 0 -31 -31 -62 -69z m94 31 c8
-15 3 -25 -27 -53 -20 -20 -46 -42 -57 -50 -18 -13 -19 -12 -7 2 10 14 10 18
-5 23 -10 4 -14 4 -10 0 8 -8 -11 -34 -25 -34 -11 0 28 56 70 103 30 32 47 34
61 9z"/>
<path d="M2734 2038 c-43 -49 -46 -61 -6 -23 23 21 42 33 42 25 0 -7 -15 -26
-32 -42 -18 -16 -24 -25 -13 -19 31 14 58 49 52 66 -9 21 -20 19 -43 -7z"/>
<path d="M690 1955 c0 -73 -1 -75 -25 -75 -29 0 -32 -8 -10 -24 17 -12 24 -90
11 -118 -7 -16 -2 -18 42 -18 52 0 73 13 53 33 -19 19 -14 104 7 116 19 12 12
14 -35 11 -32 -1 -33 0 -32 37 l2 38 7 -35 c6 -29 8 -31 9 -9 2 43 -11 119
-20 119 -5 0 -9 -34 -9 -75z m43 -141 c-3 -25 0 -51 7 -58 8 -11 5 -15 -16
-19 -29 -5 -30 -3 -39 71 l-6 52 29 0 c28 0 29 -1 25 -46z"/>
<path d="M2710 1790 c-69 -32 -126 -65 -128 -73 -5 -22 46 -117 62 -117 17 0
264 119 271 130 3 5 -6 34 -19 64 -17 39 -30 56 -43 55 -10 0 -74 -27 -143
-59z m156 23 c-3 -8 -2 -12 2 -9 14 9 36 -64 23 -77 -6 -6 -11 -8 -11 -3 0 4
-7 0 -16 -8 -25 -25 -34 -20 -59 37 l-23 52 36 17 c39 18 57 15 48 -9z m-72
-69 l22 -47 -51 -27 c-50 -27 -59 -25 -67 10 -2 8 -6 17 -10 20 -3 3 -9 17
-13 31 -6 24 -2 28 42 46 26 11 50 19 52 17 2 -2 13 -24 25 -50z m-120 -51
c15 -31 25 -57 24 -58 -7 -6 -47 -25 -52 -25 -6 0 -56 94 -56 104 0 4 47 33
57 36 1 0 13 -25 27 -57z"/>
<path d="M1 1745 c0 -45 3 -85 8 -90 5 -6 25 -89 45 -185 19 -97 38 -184 42
-194 5 -14 4 -17 -4 -12 -23 14 -43 81 -58 191 -14 104 -31 192 -33 170 -3
-36 39 -307 52 -331 14 -27 77 -94 77 -82 0 3 -6 24 -14 46 -8 22 -29 110 -46
194 -17 84 -33 161 -36 171 -3 10 0 17 8 17 11 0 103 -181 171 -339 l24 -54 6
52 c3 28 2 63 -3 77 -6 14 -8 29 -5 34 8 13 -6 40 -20 40 -15 0 -144 224 -161
280 -6 19 -17 35 -25 35 -8 0 -17 14 -20 30 -4 18 -7 -1 -8 -50z m112 -157
c20 -40 55 -106 77 -146 27 -49 40 -86 40 -110 l-1 -37 -23 55 c-13 30 -51
110 -84 177 -65 129 -67 133 -54 133 4 0 24 -33 45 -72z"/>
<path d="M817 1561 c-46 -48 -60 -84 -53 -135 3 -21 7 -40 8 -41 2 -1 25 0 51
3 45 4 49 6 44 28 -2 13 2 29 9 35 8 6 11 15 9 20 -3 4 3 13 15 19 19 10 19
11 -8 60 -15 27 -29 50 -32 50 -3 0 -22 -18 -43 -39z m63 -23 c25 -41 6 -57
-30 -25 l-25 22 25 -28 c21 -24 23 -31 12 -48 -7 -11 -10 -29 -7 -40 6 -18 3
-20 -32 -17 -38 3 -38 3 -39 49 -1 37 4 52 30 82 17 20 34 36 39 37 4 0 16
-14 27 -32z"/>
<path d="M813 1494 c0 -7 10 -17 21 -20 19 -7 19 -8 -9 -20 -24 -10 -26 -13
-9 -14 29 0 45 19 34 40 -12 23 -37 32 -37 14z"/>
<path d="M1824 1529 c-3 -6 8 -25 25 -43 41 -42 40 -58 -1 -21 -18 16 -5 1 29
-34 61 -64 61 -64 87 -47 37 24 32 48 -18 84 -24 18 -47 32 -49 32 -15 0 4
-36 28 -56 16 -13 26 -26 22 -30 -4 -4 -23 8 -42 26 -19 19 -31 36 -27 39 13
10 8 30 -13 45 -24 18 -32 19 -41 5z m126 -78 c29 -25 32 -31 21 -45 -20 -24
-44 -20 -72 12 l-24 27 27 -24 c27 -24 58 -23 58 1 0 7 -15 23 -33 36 -17 12
-27 22 -22 22 6 0 26 -13 45 -29z"/>
<path d="M431 1496 c-40 -19 -77 -38 -83 -44 -17 -17 -1 -29 34 -26 30 3 31 3
8 -5 -41 -15 -3 -12 71 5 68 15 69 16 69 49 0 54 -17 58 -99 21z m87 -15 c4
-26 -12 -41 -43 -40 -16 1 -15 2 5 8 16 4 26 15 28 30 3 21 1 23 -25 17 -21
-5 -24 -4 -13 4 23 16 45 7 48 -19z m-23 -10 c-3 -6 -25 -14 -48 -18 -38 -6
-40 -7 -17 -14 14 -5 4 -6 -25 -2 -27 3 -51 7 -53 8 -1 1 9 7 24 13 14 7 23 8
19 2 -8 -13 -8 -13 50 9 52 20 62 20 50 2z"/>
<path d="M2803 1513 c-18 -2 -33 -8 -33 -14 0 -5 -6 -9 -12 -9 -7 0 -19 -4
-27 -9 -11 -7 -10 -14 6 -37 11 -16 23 -37 26 -48 5 -13 11 -15 20 -8 16 14
80 12 90 -2 5 -7 21 5 47 33 43 49 41 55 -25 78 -52 19 -59 20 -92 16z m78
-30 c27 -10 49 -20 49 -23 0 -4 -10 -20 -23 -38 -17 -23 -27 -28 -35 -20 -14
14 -70 19 -78 7 -10 -16 -21 -9 -34 20 -17 42 -7 51 69 70 2 1 25 -7 52 -16z"/>
<path d="M2866 1444 c-10 -27 10 -40 24 -14 6 12 9 24 6 28 -3 3 -6 -1 -6 -9
0 -11 -2 -12 -9 -1 -6 11 -10 10 -15 -4z"/>
<path d="M2695 1441 c-7 -12 21 -51 37 -51 13 0 9 13 -11 39 -13 17 -20 20
-26 12z"/>
<path d="M786 1361 c-3 -5 1 -14 8 -20 9 -8 17 -8 20 -2 3 5 0 12 -6 15 -7 3
-3 3 9 1 12 -3 24 -1 28 5 4 6 -6 10 -24 10 -16 0 -32 -4 -35 -9z"/>
<path d="M545 1297 c-66 -39 -529 -338 -540 -349 -7 -8 -4 -9 10 -4 20 6 20 6
1 -9 -23 -17 -14 -20 15 -4 11 5 17 14 14 18 -2 5 13 20 35 35 42 28 67 36 34
11 -32 -24 -5 -17 34 10 20 14 30 25 22 25 -8 0 2 11 22 25 39 27 66 34 34 10
-46 -35 1 -11 72 36 77 52 112 79 82 65 -8 -4 -7 -1 3 8 11 8 25 12 32 10 7
-3 16 0 21 7 5 8 3 10 -6 4 -9 -5 -11 -4 -6 4 4 6 13 11 19 10 27 -3 39 2 34
14 -3 8 7 21 24 31 16 9 29 14 29 9 0 -4 4 -2 9 6 7 11 12 9 22 -10 11 -22 11
-23 -4 -10 -12 9 -17 10 -17 2 0 -7 -4 -10 -9 -7 -5 4 -7 -4 -3 -16 5 -21 4
-22 -11 -9 -15 12 -17 12 -11 -3 5 -13 2 -17 -11 -14 -11 2 -19 -4 -20 -14 -2
-10 -1 -18 2 -18 9 0 88 50 117 74 29 24 29 25 12 50 -9 14 -17 26 -19 26 -1
0 -20 -11 -42 -23z m54 -33 c-11 -13 -14 -13 -27 0 -21 20 -7 39 19 25 17 -8
18 -13 8 -25z m-239 -108 c0 -6 -112 -77 -116 -73 -2 2 22 20 53 40 61 38 63
39 63 33z"/>
<path d="M2763 1223 l-62 -36 34 -42 c19 -23 44 -63 55 -89 l21 -47 52 31 c29
17 58 34 66 39 11 7 9 14 -13 37 -15 16 -41 55 -57 87 -16 31 -30 57 -32 57
-1 0 -30 -16 -64 -37z m78 -15 c7 -17 28 -51 45 -74 25 -33 30 -45 20 -53 -9
-7 -20 5 -45 50 -37 67 -49 76 -80 59 -17 -9 -19 -15 -11 -30 15 -28 12 -32
-11 -20 -11 7 -18 14 -15 17 3 4 1 12 -5 19 -7 9 1 19 33 38 24 14 46 26 49
26 4 0 13 -14 20 -32z m7 -77 c37 -68 37 -67 17 -75 -10 -3 -24 8 -42 34 -14
22 -28 38 -30 36 -3 -2 7 -21 21 -42 14 -20 22 -42 19 -47 -3 -5 -13 3 -21 19
-8 16 -21 36 -29 46 -10 11 -11 18 -3 23 6 4 8 16 4 27 -5 18 8 37 26 38 3 0
20 -26 38 -59z"/>
<path d="M780 1195 c-105 -33 -176 -137 -168 -246 4 -54 3 -58 -20 -64 -26 -6
-26 -23 3 -91 l13 -33 89 33 c48 18 167 61 263 95 96 34 181 66 189 70 11 7
11 17 -5 61 -18 50 -19 51 -51 45 -22 -4 -33 -2 -33 6 0 23 -51 79 -94 104
-54 32 -126 40 -186 20z m165 -24 c44 -20 76 -51 99 -96 11 -21 23 -30 40 -30
14 -1 22 3 20 7 -3 4 -1 8 3 8 5 0 16 -20 25 -45 l17 -44 -56 -21 c-53 -20
-56 -20 -70 -3 -13 17 -14 16 -8 -4 5 -17 2 -23 -8 -23 -9 0 -17 3 -20 8 -2 4
-2 1 -1 -5 2 -7 2 -13 0 -13 -3 0 -11 -3 -20 -6 -10 -4 -16 -1 -16 9 0 9 -5
19 -10 22 -7 4 -9 -2 -5 -18 5 -20 2 -25 -17 -31 -34 -9 -46 -7 -51 7 -2 6 -3
4 -2 -5 2 -10 2 -18 0 -18 -1 0 -33 -11 -69 -25 l-67 -25 -10 22 -10 23 5 -23
c4 -19 -2 -26 -27 -37 -30 -12 -33 -12 -44 8 -13 22 -13 22 -10 -2 4 -41 -18
-33 -35 13 l-16 44 25 11 c22 10 24 15 18 51 -9 53 17 141 55 184 64 73 178
97 265 57z"/>
<path d="M762 1110 c-18 -11 -40 -33 -50 -50 -13 -21 -22 -27 -30 -20 -9 7 -9
7 -2 -2 6 -7 10 -35 10 -63 0 -44 -4 -54 -22 -64 -32 -16 -13 -11 162 49 85
30 169 62 185 73 25 15 26 18 8 14 -17 -4 -28 2 -43 23 -42 59 -153 80 -218
40z m154 -6 c38 -18 79 -64 67 -74 -4 -4 -64 -26 -133 -50 -69 -23 -131 -44
-139 -47 -21 -9 -9 92 16 125 42 57 123 77 189 46z"/>
<path d="M449 1183 c-1 -5 -1 -11 -1 -14 1 -4 -6 -6 -16 -5 -9 0 -16 -5 -14
-12 1 -8 -2 -11 -8 -7 -12 8 -53 -19 -43 -29 4 -4 0 -4 -9 -1 -18 7 -34 -10
-18 -20 14 -9 52 14 44 27 -4 7 -3 8 5 4 15 -10 78 29 78 49 0 15 -16 22 -18
8z"/>
<path d="M1885 1175 c-5 -2 -59 -7 -119 -10 -88 -6 -109 -10 -113 -24 -3 -12
-19 -17 -66 -19 -56 -2 -65 -6 -99 -39 -21 -20 -38 -41 -38 -46 0 -5 47 -7
105 -5 81 2 106 0 110 -10 4 -11 52 -13 258 -9 138 3 260 8 271 12 16 7 18 16
13 72 -2 35 -8 67 -12 71 -6 7 -290 13 -310 7z m258 -14 c4 -1 7 -8 7 -16 0
-13 -30 -15 -211 -15 l-210 0 3 -37 c3 -35 5 -38 33 -37 17 1 103 3 193 5 89
1 168 7 175 12 7 5 2 6 -15 3 -25 -6 -28 -3 -28 19 0 21 5 25 30 25 29 0 30
-2 30 -44 l0 -45 -224 -1 c-122 0 -230 2 -240 6 -22 9 -23 99 0 108 9 3 48 6
87 7 40 1 99 4 132 8 48 5 200 6 238 2z m-335 -60 c-10 -12 -7 -12 9 2 16 14
34 17 74 15 47 -3 54 -6 57 -25 3 -23 2 -23 -102 -23 -106 0 -106 0 -106 24 0
22 4 25 40 24 36 0 39 -2 28 -17z m-150 -23 c3 -23 -1 -28 -17 -28 -24 0 -27
10 -8 30 6 7 -1 4 -17 -8 -40 -31 -54 -27 -25 6 18 20 15 19 -12 -5 -27 -26
-44 -33 -74 -33 l-39 0 34 35 c33 34 38 36 95 33 57 -3 60 -4 63 -30z"/>
<path d="M212 1031 c-56 -37 -100 -70 -97 -73 4 -3 -2 -5 -12 -4 -10 0 -17 -5
-15 -12 1 -8 -2 -11 -8 -7 -11 7 -53 -19 -44 -27 3 -3 -2 -5 -12 -4 -9 0 -18
-7 -19 -16 -2 -10 -1 -18 1 -18 14 0 332 215 328 221 -8 14 -13 11 -122 -60z"/>
<path d="M274 910 c-37 -38 -76 -70 -86 -70 -10 0 -18 -5 -18 -11 0 -5 5 -7
11 -3 7 4 10 1 7 -7 -3 -8 -14 -14 -25 -13 -15 0 -19 -5 -15 -18 2 -10 10 -18
16 -18 6 0 54 -43 106 -95 52 -52 90 -95 85 -95 -10 0 26 -29 38 -30 20 -1 -3
28 -105 129 -109 106 -112 111 -95 128 17 17 19 17 47 -17 l28 -34 48 30 c27
17 59 37 71 44 24 15 39 9 29 -12 -3 -7 -22 -35 -41 -62 -41 -57 -42 -64 -13
-75 13 -5 23 -17 23 -27 0 -11 8 -20 20 -21 11 -2 14 0 8 3 -7 3 -13 17 -13
30 0 21 -10 29 -32 25 -17 -2 -7 26 20 59 38 46 54 78 47 90 -12 19 -51 10
-102 -25 -29 -19 -56 -35 -60 -34 -4 0 -18 13 -30 29 l-23 28 63 57 c65 61 85
85 68 85 -6 0 -40 -31 -77 -70z"/>
<path d="M2248 828 c-131 -171 -204 -261 -257 -321 -35 -38 -50 -67 -60 -107
-8 -30 -16 -62 -19 -70 -4 -12 -2 -12 14 1 10 9 37 26 59 37 30 15 58 46 110
121 39 56 121 170 183 254 63 84 116 158 119 165 6 13 -23 41 -44 42 -6 0 -53
-55 -105 -122z m74 49 c-7 -8 -7 -18 -2 -27 6 -8 10 -10 11 -5 4 45 14 63 22
42 6 -16 -201 -302 -211 -293 -3 3 16 33 41 66 26 33 47 62 47 65 0 17 -30 -7
-63 -50 -35 -46 -57 -66 -57 -51 0 3 32 48 71 98 39 51 88 115 108 141 20 26
37 43 39 37 2 -6 -1 -16 -6 -23z m-317 -417 c3 -5 1 -10 -6 -10 -7 0 -5 -8 7
-21 19 -22 19 -22 -2 -11 -11 6 -27 18 -34 27 -11 13 -10 14 5 9 13 -5 16 -4
11 4 -4 7 -3 12 3 12 5 0 13 -4 16 -10z"/>
<path d="M2280 828 c-13 -18 -34 -47 -47 -65 -22 -29 -16 -39 12 -21 23 14 73
95 66 106 -5 8 -15 1 -31 -20z"/>
<path d="M2726 925 c-3 -9 -6 -32 -6 -50 0 -20 -6 -35 -15 -39 -8 -3 -15 -17
-15 -31 0 -14 -28 -109 -62 -209 l-61 -184 13 -61 c7 -33 16 -61 20 -61 4 0
10 20 13 45 8 73 91 375 103 375 10 0 10 -100 1 -358 -2 -45 0 -79 4 -75 17
18 59 107 59 125 0 11 5 16 10 13 15 -9 12 23 -5 49 -12 18 -16 61 -18 194 -1
132 -5 172 -15 172 -9 0 -10 5 -3 18 5 9 11 33 12 52 3 26 0 35 -12 38 -9 2
-19 -4 -23 -13z m-53 -288 c-13 -45 -35 -126 -48 -181 -13 -54 -27 -101 -30
-104 -3 -3 -5 15 -5 39 0 26 19 103 45 182 25 76 45 145 45 155 0 13 2 14 9 4
5 -8 -1 -46 -16 -95z m88 -187 c1 -55 -15 -132 -24 -119 -2 2 -1 92 2 199 5
193 5 194 13 90 4 -58 8 -134 9 -170z"/>
<path d="M2926 860 c-37 -35 -64 -66 -59 -67 20 -7 128 44 131 61 3 12 -1 17
-10 13 -7 -2 -12 -9 -11 -15 1 -6 -11 -15 -27 -21 -17 -5 -30 -7 -30 -3 0 17
32 51 44 46 16 -6 39 21 34 38 -3 8 -31 -12 -72 -52z"/>
<path d="M2010 885 c7 -9 19 -14 27 -11 8 3 11 2 8 -3 -3 -5 -1 -12 4 -15 5
-3 12 1 15 9 4 11 -3 19 -20 25 -37 14 -49 13 -34 -5z"/>
<path d="M1955 874 c-7 -11 -26 -17 -53 -18 -41 -1 -42 -2 -58 -49 -9 -27 -13
-51 -10 -54 3 -3 33 -7 66 -8 58 -2 63 0 106 38 l46 40 -39 33 c-44 39 -45 39
-58 18z m65 -50 c0 -7 -15 -24 -33 -38 -26 -20 -46 -26 -85 -26 -56 0 -62 7
-40 55 8 17 17 24 29 20 9 -3 20 -1 24 5 3 5 14 10 25 10 10 0 21 7 24 16 6
15 10 14 31 -6 14 -13 25 -29 25 -36z"/>
<path d="M1286 872 c-15 -25 -90 -575 -81 -602 7 -22 17 -25 189 -50 174 -25
232 -26 245 -2 9 17 49 282 72 480 10 87 10 105 -2 117 -8 7 -77 23 -154 35
-177 28 -261 35 -269 22z m233 -31 c95 -16 176 -33 180 -40 4 -6 4 -44 -1 -84
-14 -125 -50 -382 -54 -389 -4 -6 -10 -37 -18 -93 -4 -29 -33 -29 -203 -5
-221 32 -197 15 -188 134 4 56 8 118 8 138 1 20 5 34 10 31 6 -3 8 10 5 31 -2
20 0 36 5 36 5 0 7 18 5 39 -2 22 0 37 4 35 4 -3 8 14 7 38 0 83 2 99 11 93 8
-5 15 31 11 58 -2 12 34 8 218 -22z"/>
<path d="M1337 813 c-9 -16 -18 -123 -10 -123 4 -1 77 -11 161 -24 84 -13 155
-20 157 -16 3 4 7 32 11 63 8 65 22 57 -151 82 -60 9 -122 18 -137 21 -14 3
-28 2 -31 -3z m165 -34 c79 -11 144 -22 145 -22 3 -4 -15 -88 -20 -93 -3 -3
-71 5 -151 17 -162 25 -147 15 -131 94 3 14 7 25 9 25 3 0 69 -9 148 -21z"/>
<path d="M1317 603 c-7 -34 3 -46 34 -41 18 2 25 10 27 31 2 19 -1 27 -12 27
-8 0 -21 3 -29 6 -10 3 -16 -4 -20 -23z m53 3 c0 -16 -14 -36 -26 -36 -14 0
-19 22 -7 33 7 8 33 10 33 3z"/>
<path d="M1395 590 c-8 -27 1 -40 29 -40 16 0 26 7 30 23 9 35 8 37 -23 37
-21 0 -32 -6 -36 -20z m45 -10 c0 -13 -7 -20 -19 -20 -14 0 -18 5 -14 20 3 11
12 20 19 20 8 0 14 -9 14 -20z"/>
<path d="M1475 580 c-9 -28 2 -40 36 -40 26 0 29 3 29 30 0 27 -3 30 -29 30
-21 0 -32 -6 -36 -20z m55 -10 c0 -14 -7 -20 -24 -20 -19 0 -23 4 -19 20 3 11
14 20 24 20 12 0 19 -7 19 -20z"/>
<path d="M1560 562 c0 -24 5 -31 26 -35 27 -5 38 8 32 40 -2 11 -14 19 -31 21
-24 3 -27 0 -27 -26z m47 -6 c-7 -21 -37 -19 -37 2 0 15 5 19 20 15 12 -3 19
-11 17 -17z"/>
<path d="M1305 520 c-8 -27 1 -40 30 -40 22 0 35 17 35 46 0 23 -57 18 -65 -6z
m55 3 c0 -17 -19 -35 -29 -29 -18 12 -12 36 9 36 11 0 20 -3 20 -7z"/>
<path d="M1384 515 c-11 -27 4 -47 33 -43 22 2 29 9 31 31 3 24 0 27 -28 27
-18 0 -33 -6 -36 -15z m56 1 c0 -2 -3 -11 -6 -20 -9 -23 -34 -20 -34 4 0 13 7
20 20 20 11 0 20 -2 20 -4z"/>
<path d="M1467 513 c-4 -3 -7 -17 -7 -30 0 -21 4 -24 33 -21 27 2 33 8 35 31
3 24 0 27 -26 27 -16 0 -32 -3 -35 -7z m48 -23 c0 -8 -10 -16 -22 -18 -25 -4
-26 -2 -17 23 8 19 39 16 39 -5z"/>
<path d="M1546 488 c-9 -37 -8 -39 27 -36 27 2 32 7 32 28 0 20 -6 26 -26 28
-20 2 -28 -2 -33 -20z m42 -11 c2 -10 -3 -17 -12 -17 -10 0 -16 9 -16 21 0 24
23 21 28 -4z"/>
<path d="M1296 463 c-3 -3 -6 -19 -6 -35 0 -24 4 -28 29 -28 23 0 30 5 35 26
4 15 6 27 4 29 -9 7 -56 14 -62 8z m44 -33 c0 -22 -7 -25 -29 -11 -16 10 -6
31 15 31 8 0 14 -9 14 -20z"/>
<path d="M1374 435 c-10 -25 4 -45 30 -45 17 0 25 7 28 25 3 13 3 27 0 30 -11
11 -53 4 -58 -10z m46 -15 c0 -11 -6 -20 -13 -20 -19 0 -27 10 -20 26 8 21 33
17 33 -6z"/>
<path d="M1450 410 c0 -29 2 -31 33 -28 27 2 32 7 32 28 0 21 -5 26 -32 28
-31 3 -33 1 -33 -28z m60 16 c0 -18 -15 -36 -31 -36 -18 0 -26 20 -12 33 7 8
43 10 43 3z"/>
<path d="M1537 413 c-3 -10 -9 -42 -12 -70 l-7 -53 31 0 c32 0 38 13 44 100 2
31 -1 35 -25 38 -18 2 -28 -2 -31 -15z m38 -3 c4 -6 4 -33 0 -61 -6 -39 -11
-49 -23 -47 -13 3 -16 13 -14 43 5 69 20 93 37 65z"/>
<path d="M1286 383 c-3 -3 -6 -19 -6 -35 0 -24 4 -28 29 -28 23 0 30 5 35 26
4 15 6 27 4 29 -9 7 -56 14 -62 8z m47 -32 c-3 -12 -11 -17 -23 -14 -23 6 -15
33 10 33 13 0 17 -6 13 -19z"/>
<path d="M1363 364 c-10 -27 2 -49 30 -52 24 -3 27 0 27 26 0 24 -5 31 -26 35
-16 3 -28 0 -31 -9z m47 -25 c0 -15 -4 -19 -16 -15 -9 3 -18 6 -20 6 -2 0 -4
7 -4 15 0 8 9 15 20 15 14 0 20 -7 20 -21z"/>
<path d="M1444 345 c-10 -25 4 -45 30 -45 17 0 25 7 28 25 3 13 3 27 0 30 -11
11 -53 4 -58 -10z m46 -15 c0 -11 -6 -20 -13 -20 -19 0 -27 10 -20 26 8 21 33
17 33 -6z"/>
<path d="M1032 713 c-101 -44 -112 -68 -24 -60 l57 6 -45 -11 c-25 -6 -40 -12
-34 -15 20 -7 139 26 150 42 13 18 8 49 -10 64 -7 6 -39 -2 -94 -26z m96 -16
c2 -15 -1 -27 -6 -27 -5 0 -7 11 -4 25 5 29 -4 31 -55 10 -50 -21 -56 -17 -8
6 51 24 69 21 73 -14z m-20 1 c-3 -7 -15 -15 -29 -19 l-24 -6 25 -4 c14 -2 -8
-5 -49 -5 -74 -1 -79 14 -7 21 19 1 42 8 52 14 25 14 37 14 32 -1z"/>
<path d="M2375 690 c-3 -4 -2 -15 1 -23 9 -23 -47 -93 -71 -89 -19 3 -20 2 -1
-12 10 -9 23 -17 28 -18 6 -2 -4 -35 -21 -72 -34 -76 -34 -76 -23 -76 13 0 43
59 36 72 -4 7 -3 8 4 4 6 -4 18 6 27 24 13 25 19 29 35 20 26 -14 33 -13 26 7
-9 23 13 85 38 105 14 11 18 20 11 27 -18 16 -84 40 -90 31z m52 -28 c10 -6 8
-17 -7 -47 -11 -22 -20 -47 -20 -57 0 -21 -1 -21 -34 -7 l-25 12 25 38 c13 21
24 45 24 54 0 16 17 19 37 7z"/>
<path d="M661 625 c-18 -25 -50 -59 -72 -77 l-40 -32 48 -48 c26 -26 52 -48
58 -48 7 0 18 12 26 26 7 15 37 48 66 73 l53 47 -53 52 -53 53 -33 -46z m80
-21 l36 -35 -63 -64 c-34 -34 -60 -67 -56 -71 3 -5 -9 6 -28 24 l-35 32 53 52
c46 47 53 51 67 37 14 -14 13 -18 -10 -39 -21 -19 -25 -21 -25 -7 0 19 -15 23
-25 7 -3 -6 1 -13 10 -16 14 -6 12 -11 -12 -37 -16 -17 -3 -10 30 17 59 50 66
63 45 84 -22 22 -45 12 -92 -38 -26 -28 -52 -48 -57 -44 -6 3 3 16 19 27 34
26 63 54 62 62 0 6 33 43 40 44 2 1 21 -15 41 -35z"/>
<path d="M44 579 c-5 -8 -3 -9 7 -4 8 5 -1 -5 -18 -22 -33 -31 -44 -50 -20
-37 10 6 10 4 0 -7 -7 -7 -13 -22 -13 -33 0 -19 1 -18 17 4 48 72 64 89 80 83
14 -6 14 -7 -2 -19 -9 -7 -14 -17 -10 -23 9 -16 35 -13 35 4 0 18 5 18 31 4
20 -10 20 -11 2 -24 -15 -11 -16 -16 -5 -27 11 -11 16 -10 27 6 14 18 15 18
42 0 23 -15 25 -19 11 -22 -10 -2 -18 -10 -18 -18 0 -19 38 -18 42 1 3 14 6
14 26 -1 17 -12 21 -19 13 -27 -6 -6 -11 -17 -11 -24 0 -18 27 -16 37 2 8 13
11 13 31 -1 20 -14 21 -17 8 -27 -10 -8 -13 -17 -7 -26 10 -16 31 -6 31 15 0
12 4 12 26 -2 17 -12 22 -20 15 -27 -6 -6 -11 -17 -11 -24 0 -18 29 -16 36 2
5 12 9 12 31 -2 21 -14 23 -17 8 -25 -13 -8 -14 -13 -4 -24 15 -19 29 -18 29
2 0 9 5 14 12 12 24 -8 18 -27 -12 -43 -18 -9 -29 -19 -26 -22 3 -3 13 0 22 8
16 13 16 12 4 -8 -8 -12 -19 -19 -25 -16 -5 4 -7 3 -3 -2 4 -4 -19 -46 -52
-93 -33 -47 -57 -88 -55 -91 7 -6 1 -13 99 129 79 115 85 126 69 138 -10 7
-17 20 -15 27 2 10 -3 13 -13 9 -19 -8 -57 24 -48 39 4 6 0 8 -9 4 -20 -7 -58
19 -58 40 0 9 -6 13 -14 10 -18 -7 -56 20 -56 39 0 8 -5 12 -10 9 -15 -9 -62
23 -54 37 5 7 2 9 -8 6 -20 -8 -66 23 -60 41 3 9 0 11 -8 6 -16 -10 -60 14
-54 30 4 8 -3 13 -18 12 -13 -1 -33 2 -45 6 -13 5 -24 3 -29 -4z"/>
<path d="M2947 387 c-79 -116 -175 -257 -223 -325 l-44 -63 27 4 c15 2 29 9
31 17 3 8 0 10 -8 5 -9 -5 -11 -4 -6 4 4 6 11 9 16 6 5 -3 18 8 29 24 29 41
26 52 -5 16 l-26 -30 22 32 c11 18 26 32 32 30 6 -1 13 4 16 12 3 9 0 11 -8 6
-9 -5 -11 -4 -6 4 4 6 11 9 16 6 4 -2 25 20 45 50 31 44 36 57 26 69 -9 11 -9
16 0 22 7 4 9 3 5 -4 -3 -6 -2 -13 3 -16 11 -7 84 102 76 115 -4 5 -1 8 7 7 7
-2 12 5 12 14 -1 10 2 15 7 12 5 -3 9 9 9 25 0 17 -1 31 -2 30 -2 0 -25 -33
-51 -72z m-81 -154 c-2 -9 -8 -19 -14 -21 -7 -2 -10 -8 -6 -13 3 -5 -2 -12
-10 -15 -9 -3 -14 -10 -11 -14 3 -5 1 -11 -4 -14 -5 -4 -8 1 -7 10 1 8 9 20
17 25 8 5 10 9 4 9 -5 0 -1 7 9 15 11 8 16 15 12 15 -4 0 -4 5 -1 10 9 15 14
12 11 -7z"/>
<path d="M880 443 c0 -5 14 -36 32 -71 31 -59 32 -64 16 -76 -20 -15 -24 -30
-6 -24 14 5 68 -53 68 -73 0 -8 4 -20 9 -28 8 -12 17 -10 52 13 l42 28 -26 22
c-37 31 -61 84 -46 102 9 11 8 14 -4 14 -9 0 -19 -4 -22 -10 -11 -18 -21 -11
-65 50 -43 60 -50 67 -50 53z m147 -183 l31 -50 -21 -15 c-20 -14 -22 -13 -30
7 -4 13 -20 36 -35 51 -26 28 -27 29 -8 43 11 8 22 14 25 14 3 0 20 -23 38
-50z"/>
<path d="M31 384 c0 -15 337 -249 345 -241 3 3 -36 33 -88 68 -51 34 -118 81
-148 104 -75 57 -110 79 -109 69z"/>
<path d="M0 276 c0 -8 312 -217 317 -213 4 5 -72 61 -214 155 -88 59 -103 68
-103 58z"/>
<path d="M2220 261 c-14 -4 -40 -16 -58 -25 -31 -16 -35 -16 -51 -2 -25 23
-32 21 -76 -24 l-39 -40 89 -88 c49 -48 83 -80 77 -71 -10 13 -10 18 3 23 8 3
15 11 15 17 0 8 -7 5 -19 -5 -20 -18 -38 -7 -25 17 4 6 4 9 -1 5 -4 -4 -14 -3
-22 4 -11 9 -11 14 4 32 18 21 18 21 -3 3 -18 -14 -23 -15 -32 -4 -9 10 -8 17
1 27 10 12 9 12 -4 2 -13 -10 -19 -9 -28 2 -9 11 -8 15 4 20 8 3 15 11 15 17
0 8 -7 5 -19 -5 -14 -13 -21 -14 -26 -6 -5 7 7 26 27 46 l34 35 19 -21 c19
-20 19 -21 -1 -14 -13 5 -16 4 -9 -4 7 -8 27 -3 69 18 99 50 208 36 279 -36
39 -39 55 -73 66 -136 l9 -53 1 43 c2 80 -51 162 -133 204 -43 22 -128 32
-166 19z"/>
<path d="M2208 175 c-17 -10 -29 -11 -33 -5 -3 5 -11 10 -17 10 -5 0 -1 -10
10 -22 11 -13 46 -52 77 -88 31 -36 62 -67 68 -69 13 -4 -14 29 -82 101 l-45
47 37 16 c20 8 51 15 69 15 70 0 138 -71 138 -142 0 -21 5 -38 10 -38 6 0 10
4 10 9 0 5 8 12 18 14 16 4 16 5 0 6 -10 0 -18 7 -18 14 0 8 -11 34 -23 60
-22 42 -22 47 -8 61 8 9 10 16 4 16 -6 0 -13 -7 -17 -15 -5 -13 -10 -12 -38 5
-39 24 -120 26 -160 5z"/>
<path d="M0 146 c0 -8 211 -146 223 -146 7 0 -39 34 -100 75 -108 72 -123 81
-123 71z"/>
<path d="M1772 99 c-35 -16 -62 -32 -60 -36 27 -56 32 -62 54 -61 19 2 23 7
18 21 -4 11 0 23 7 28 22 13 26 11 39 -21 16 -40 23 -33 9 8 -11 33 -27 39
-59 22 -12 -6 -16 -17 -13 -30 3 -11 0 -20 -6 -20 -6 0 -10 3 -9 8 1 4 -3 17
-10 28 -12 23 -15 21 86 61 6 3 12 -2 12 -11 0 -23 31 -96 41 -96 4 0 -1 19
-11 43 -11 23 -20 50 -20 59 0 28 -12 27 -78 -3z"/>
<path d="M2890 123 c1 -11 110 -86 110 -75 0 5 -25 26 -55 46 -30 20 -55 33
-55 29z"/>
<path d="M1470 71 c0 -33 19 -71 35 -71 16 0 18 11 9 59 -7 36 -44 46 -44 12z"/>
<path d="M864 66 c-3 -8 -4 -27 -1 -43 4 -27 4 -26 6 5 1 30 4 33 28 30 22 -2
29 -10 34 -33 l7 -30 1 32 c1 23 -5 35 -18 43 -27 14 -51 13 -57 -4z"/>
<path d="M881 23 c2 -24 2 -25 6 -5 2 12 8 22 13 22 5 0 11 -10 13 -22 4 -20
4 -19 6 5 1 21 -4 27 -19 27 -15 0 -20 -6 -19 -27z"/>
</g>
</svg>
